<svg version="1.1" viewBox="0.0 0.0 960.0 240.0" fill="none" stroke="none" stroke-linecap="square" stroke-miterlimit="10" xmlns:xlink="http://www.w3.org/1999/xlink" xmlns="http://www.w3.org/2000/svg"><clipPath id="g2f62eed5d00_0_131.0"><path d="m0 0l960.0 0l0 240.0l-960.0 0l0 -240.0z" clip-rule="nonzero"/></clipPath><g clip-path="url(#g2f62eed5d00_0_131.0)"><path fill="#212121" d="m0 0l960.0 0l0 240.0l-960.0 0z" fill-rule="evenodd"/><path fill="#434343" d="m29.842527 53.330025l0 0c0 -9.019379 7.311655 -16.331032 16.331034 -16.331032l113.51116 0c4.331253 0 8.485123 1.7205849 11.547791 4.783249c3.0626526 3.0626602 4.783249 7.216526 4.783249 11.547783l0 65.32218c0 9.019386 -7.311661 16.33104 -16.33104 16.33104l-113.51116 0c-9.019379 0 -16.331034 -7.311653 -16.331034 -16.33104z" fill-rule="evenodd"/><path stroke="#212121" stroke-width="8.0" stroke-linejoin="round" stroke-linecap="butt" d="m29.842527 53.330025l0 0c0 -9.019379 7.311655 -16.331032 16.331034 -16.331032l113.51116 0c4.331253 0 8.485123 1.7205849 11.547791 4.783249c3.0626526 3.0626602 4.783249 7.216526 4.783249 11.547783l0 65.32218c0 9.019386 -7.311661 16.33104 -16.33104 16.33104l-113.51116 0c-9.019379 0 -16.331034 -7.311653 -16.331034 -16.33104z" fill-rule="evenodd"/><path fill="#ffffff" d="m88.35264 87.759865l1.28125 0l1.078125 1.421875l0.28125 0.375l1.609375 2.140625l-1.28125 0l-1.0625 -1.40625l-0.265625 -0.375l-1.640625 -2.15625zm0.40625 3.15625q-1.25 0 -2.234375 -0.59375q-0.96875 -0.609375 -1.53125 -1.71875q-0.546875 -1.125 -0.546875 -2.65625q0 -1.546875 0.546875 -2.65625q0.5625 -1.109375 1.53125 -1.71875q0.984375 -0.609375 2.234375 -0.609375q1.234375 0 2.203125 0.609375q0.96875 0.609375 1.515625 1.71875q0.5625 1.109375 0.5625 2.65625q0 1.53125 -0.5625 2.65625q-0.546875 1.109375 -1.515625 1.71875q-0.96875 0.59375 -2.203125 0.59375zm0 -1.140625q0.859375 0 1.546875 -0.4375q0.703125 -0.4375 1.109375 -1.296875q0.421875 -0.859375 0.421875 -2.09375q0 -1.25 -0.421875 -2.09375q-0.40625 -0.859375 -1.109375 -1.296875q-0.6875 -0.453125 -1.546875 -0.453125q-0.875 0 -1.578125 0.453125q-0.703125 0.4375 -1.125 1.296875q-0.40625 0.859375 -0.40625 2.09375q0 1.234375 0.40625 2.09375q0.421875 0.84375 1.125 1.296875q0.703125 0.4375 1.578125 0.4375zm8.581955 1.109375q-0.734375 0 -1.296875 -0.296875q-0.5625 -0.3125 -0.875 -0.921875q-0.296875 -0.609375 -0.296875 -1.53125l0 -4.625l1.171875 0l0 4.53125q0 0.84375 0.4375 1.3125q0.4375 0.46875 1.203125 0.46875q0.515625 0 0.921875 -0.21875q0.421875 -0.234375 0.65625 -0.671875q0.25 -0.4375 0.25 -1.0625l0 -4.359375l1.1875 0l0 7.28125l-1.140625 0l0 -1.765625l0.15625 0q-0.34375 1.03125 -0.96875 1.453125q-0.609375 0.40625 -1.40625 0.40625zm8.4747925 0.0625q-1.0625 0 -1.828125 -0.46875q-0.765625 -0.46875 -1.1875 -1.296875q-0.40625 -0.84375 -0.40625 -1.96875q0 -1.125 0.40625 -1.96875q0.40625 -0.859375 1.140625 -1.328125q0.75 -0.484375 1.734375 -0.484375q0.578125 0 1.140625 0.1875q0.5625 0.1875 1.015625 0.625q0.46875 0.421875 0.734375 1.125q0.28125 0.6875 0.28125 1.6875l0 0.5l-5.65625 0l0 -1.0l5.015625 0l-0.546875 0.375q0 -0.71875 -0.21875 -1.265625q-0.21875 -0.5625 -0.671875 -0.875q-0.4375 -0.328125 -1.09375 -0.328125q-0.65625 0 -1.125 0.328125q-0.46875 0.3125 -0.71875 0.84375q-0.25 0.515625 -0.25 1.109375l0 0.65625q0 0.796875 0.28125 1.359375q0.28125 0.5625 0.78125 0.859375q0.5 0.28125 1.171875 0.28125q0.421875 0 0.765625 -0.109375q0.359375 -0.125 0.609375 -0.375q0.265625 -0.265625 0.40625 -0.625l1.125 0.3125q-0.171875 0.546875 -0.578125 0.96875q-0.390625 0.40625 -1.0 0.640625q-0.59375 0.234375 -1.328125 0.234375zm4.707901 -0.15625l0 -7.28125l1.125 0l0 1.125l0.078125 0q0.203125 -0.546875 0.71875 -0.875q0.515625 -0.34375 1.171875 -0.34375q0.125 0 0.296875 0.015625q0.1875 0 0.296875 0l0 1.171875q-0.046875 -0.015625 -0.265625 -0.03125q-0.203125 -0.03125 -0.4375 -0.03125q-0.515625 0 -0.9375 0.21875q-0.40625 0.21875 -0.640625 0.609375q-0.234375 0.375 -0.234375 0.859375l0 4.5625l-1.171875 0zm5.1009064 2.640625l0.296875 -1.015625l0.125 0.03125q0.359375 0.09375 0.65625 0.046875q0.296875 -0.046875 0.53125 -0.296875q0.234375 -0.234375 0.40625 -0.765625l0.203125 -0.609375l-2.78125 -7.3125l1.296875 0l1.546875 4.3125q0.234375 0.6875 0.40625 1.359375q0.171875 0.65625 0.359375 1.28125l-0.421875 0q0.1875 -0.625 0.359375 -1.296875q0.171875 -0.671875 0.40625 -1.34375l1.5625 -4.3125l1.28125 0l-3.203125 8.375q-0.21875 0.578125 -0.53125 0.953125q-0.296875 0.375 -0.71875 0.546875q-0.40625 0.171875 -0.921875 0.171875q-0.3125 0 -0.546875 -0.046875q-0.21875 -0.03125 -0.3125 -0.078125z" fill-rule="nonzero"/><path fill="#434343" d="m218.38144 53.330025l0 0c0 -9.019379 7.3116455 -16.331032 16.331024 -16.331032l113.51117 0c4.3312683 0 8.485107 1.7205849 11.547791 4.783249c3.0626526 3.0626602 4.7832336 7.216526 4.7832336 11.547783l0 65.32218c0 9.019386 -7.3116455 16.33104 -16.331024 16.33104l-113.51117 0c-9.019379 0 -16.331024 -7.311653 -16.331024 -16.33104z" fill-rule="evenodd"/><path stroke="#212121" stroke-width="8.0" stroke-linejoin="round" stroke-linecap="butt" d="m218.38144 53.330025l0 0c0 -9.019379 7.3116455 -16.331032 16.331024 -16.331032l113.51117 0c4.3312683 0 8.485107 1.7205849 11.547791 4.783249c3.0626526 3.0626602 4.7832336 7.216526 4.7832336 11.547783l0 65.32218c0 9.019386 -7.3116455 16.33104 -16.331024 16.33104l-113.51117 0c-9.019379 0 -16.331024 -7.311653 -16.331024 -16.33104z" fill-rule="evenodd"/><path fill="#ffffff" d="m278.7658 79.759865l1.28125 0l1.078125 1.421875l0.28125 0.375l1.609375 2.140625l-1.28125 0l-1.0625 -1.40625l-0.265625 -0.375l-1.640625 -2.15625zm0.40625 3.15625q-1.25 0 -2.234375 -0.59375q-0.96875 -0.609375 -1.53125 -1.71875q-0.546875 -1.125 -0.546875 -2.65625q0 -1.546875 0.546875 -2.65625q0.5625 -1.109375 1.53125 -1.71875q0.984375 -0.609375 2.234375 -0.609375q1.234375 0 2.203125 0.609375q0.96875 0.609375 1.515625 1.71875q0.5625 1.109375 0.5625 2.65625q0 1.53125 -0.5625 2.65625q-0.546875 1.109375 -1.515625 1.71875q-0.96875 0.59375 -2.203125 0.59375zm0 -1.140625q0.859375 0 1.546875 -0.4375q0.703125 -0.4375 1.109375 -1.296875q0.421875 -0.859375 0.421875 -2.09375q0 -1.25 -0.421875 -2.09375q-0.40625 -0.859375 -1.109375 -1.296875q-0.6875 -0.453125 -1.546875 -0.453125q-0.875 0 -1.578125 0.453125q-0.703125 0.4375 -1.125 1.296875q-0.40625 0.859375 -0.40625 2.09375q0 1.234375 0.40625 2.09375q0.421875 0.84375 1.125 1.296875q0.703125 0.4375 1.578125 0.4375zm8.58197 1.109375q-0.734375 0 -1.296875 -0.296875q-0.5625 -0.3125 -0.875 -0.921875q-0.296875 -0.609375 -0.296875 -1.53125l0 -4.625l1.171875 0l0 4.53125q0 0.84375 0.4375 1.3125q0.4375 0.46875 1.203125 0.46875q0.515625 0 0.921875 -0.21875q0.421875 -0.234375 0.65625 -0.671875q0.25 -0.4375 0.25 -1.0625l0 -4.359375l1.1875 0l0 7.28125l-1.140625 0l0 -1.765625l0.15625 0q-0.34375 1.03125 -0.96875 1.453125q-0.609375 0.40625 -1.40625 0.40625zm8.4747925 0.0625q-1.0625 0 -1.828125 -0.46875q-0.765625 -0.46875 -1.1875 -1.296875q-0.40625 -0.84375 -0.40625 -1.96875q0 -1.125 0.40625 -1.96875q0.40625 -0.859375 1.140625 -1.328125q0.75 -0.484375 1.734375 -0.484375q0.578125 0 1.140625 0.1875q0.5625 0.1875 1.015625 0.625q0.46875 0.421875 0.734375 1.125q0.28125 0.6875 0.28125 1.6875l0 0.5l-5.65625 0l0 -1.0l5.015625 0l-0.546875 0.375q0 -0.71875 -0.21875 -1.265625q-0.21875 -0.5625 -0.671875 -0.875q-0.4375 -0.328125 -1.09375 -0.328125q-0.65625 0 -1.125 0.328125q-0.46875 0.3125 -0.71875 0.84375q-0.25 0.515625 -0.25 1.109375l0 0.65625q0 0.796875 0.28125 1.359375q0.28125 0.5625 0.78125 0.859375q0.5 0.28125 1.171875 0.28125q0.421875 0 0.765625 -0.109375q0.359375 -0.125 0.609375 -0.375q0.265625 -0.265625 0.40625 -0.625l1.125 0.3125q-0.171875 0.546875 -0.578125 0.96875q-0.390625 0.40625 -1.0 0.640625q-0.59375 0.234375 -1.328125 0.234375zm4.7078857 -0.15625l0 -7.28125l1.125 0l0 1.125l0.078125 0q0.203125 -0.546875 0.71875 -0.875q0.515625 -0.34375 1.171875 -0.34375q0.125 0 0.296875 0.015625q0.1875 0 0.296875 0l0 1.171875q-0.046875 -0.015625 -0.265625 -0.03125q-0.203125 -0.03125 -0.4375 -0.03125q-0.515625 0 -0.9375 0.21875q-0.40625 0.21875 -0.640625 0.609375q-0.234375 0.375 -0.234375 0.859375l0 4.5625l-1.171875 0zm5.1009216 2.640625l0.296875 -1.015625l0.125 0.03125q0.359375 0.09375 0.65625 0.046875q0.296875 -0.046875 0.53125 -0.296875q0.234375 -0.234375 0.40625 -0.765625l0.203125 -0.609375l-2.78125 -7.3125l1.296875 0l1.546875 4.3125q0.234375 0.6875 0.40625 1.359375q0.171875 0.65625 0.359375 1.28125l-0.421875 0q0.1875 -0.625 0.359375 -1.296875q0.171875 -0.671875 0.40625 -1.34375l1.5625 -4.3125l1.28125 0l-3.203125 8.375q-0.21875 0.578125 -0.53125 0.953125q-0.296875 0.375 -0.71875 0.546875q-0.40625 0.171875 -0.921875 0.171875q-0.3125 0 -0.546875 -0.046875q-0.21875 -0.03125 -0.3125 -0.078125z" fill-rule="nonzero"/><path fill="#ffffff" d="m256.39197 98.916115q-1.234375 0 -2.21875 -0.59375q-0.96875 -0.609375 -1.53125 -1.71875q-0.546875 -1.125 -0.546875 -2.65625q0 -1.546875 0.546875 -2.65625q0.5625 -1.109375 1.53125 -1.71875q0.984375 -0.609375 2.21875 -0.609375q0.734375 0 1.390625 0.21875q0.65625 0.21875 1.171875 0.625q0.53125 0.40625 0.875 1.0q0.34375 0.59375 0.46875 1.34375l-1.234375 0q-0.09375 -0.5 -0.34375 -0.875q-0.25 -0.390625 -0.625 -0.640625q-0.359375 -0.265625 -0.796875 -0.390625q-0.421875 -0.140625 -0.90625 -0.140625q-0.875 0 -1.578125 0.453125q-0.703125 0.4375 -1.109375 1.296875q-0.40625 0.859375 -0.40625 2.09375q0 1.234375 0.40625 2.09375q0.421875 0.859375 1.125 1.296875q0.703125 0.4375 1.5625 0.4375q0.484375 0 0.90625 -0.125q0.4375 -0.140625 0.796875 -0.390625q0.375 -0.265625 0.625 -0.640625q0.25 -0.390625 0.34375 -0.875l1.234375 0q-0.109375 0.734375 -0.46875 1.328125q-0.34375 0.578125 -0.875 1.0q-0.515625 0.40625 -1.171875 0.625q-0.640625 0.21875 -1.390625 0.21875zm8.626404 0.03125q-0.984375 0 -1.734375 -0.46875q-0.734375 -0.46875 -1.15625 -1.3125q-0.421875 -0.84375 -0.421875 -1.96875q0 -1.140625 0.421875 -1.984375q0.421875 -0.859375 1.15625 -1.3125q0.75 -0.46875 1.734375 -0.46875q1.0 0 1.75 0.46875q0.75 0.453125 1.15625 1.3125q0.421875 0.84375 0.421875 1.984375q0 1.125 -0.421875 1.96875q-0.40625 0.84375 -1.15625 1.3125q-0.75 0.46875 -1.75 0.46875zm0 -1.046875q0.734375 0 1.203125 -0.375q0.484375 -0.375 0.703125 -0.984375q0.234375 -0.625 0.234375 -1.34375q0 -0.71875 -0.234375 -1.34375q-0.21875 -0.625 -0.703125 -1.0q-0.46875 -0.375 -1.203125 -0.375q-0.71875 0 -1.1875 0.375q-0.46875 0.375 -0.703125 1.0q-0.21875 0.609375 -0.21875 1.34375q0 0.71875 0.21875 1.34375q0.234375 0.609375 0.703125 0.984375q0.46875 0.375 1.1875 0.375zm5.0385437 0.890625l0 -7.28125l1.140625 0l0 1.625l-0.09375 0q0.15625 -0.578125 0.46875 -0.96875q0.328125 -0.390625 0.75 -0.578125q0.4375 -0.203125 0.90625 -0.203125q0.796875 0 1.28125 0.484375q0.5 0.484375 0.640625 1.28125l-0.15625 0q0.140625 -0.546875 0.484375 -0.9375q0.34375 -0.390625 0.828125 -0.609375q0.5 -0.21875 1.078125 -0.21875q0.625 0 1.140625 0.28125q0.53125 0.265625 0.828125 0.828125q0.3125 0.546875 0.3125 1.390625l0 4.90625l-1.171875 0l0 -4.875q0 -0.78125 -0.4375 -1.125q-0.4375 -0.34375 -1.03125 -0.34375q-0.484375 0 -0.84375 0.21875q-0.34375 0.203125 -0.546875 0.5625q-0.1875 0.34375 -0.1875 0.8125l0 4.75l-1.171875 0l0 -4.984375q0 -0.609375 -0.40625 -0.984375q-0.40625 -0.375 -1.015625 -0.375q-0.421875 0 -0.796875 0.203125q-0.375 0.203125 -0.609375 0.59375q-0.21875 0.390625 -0.21875 0.96875l0 4.578125l-1.171875 0zm11.67511 2.71875l0 -10.0l1.125 0l0 1.171875l0.140625 0q0.125 -0.203125 0.34375 -0.484375q0.21875 -0.296875 0.625 -0.53125q0.421875 -0.234375 1.140625 -0.234375q0.90625 0 1.59375 0.453125q0.7031555 0.453125 1.0937805 1.296875q0.390625 0.84375 0.390625 1.984375q0 1.171875 -0.390625 2.015625q-0.390625 0.84375 -1.0937805 1.3125q-0.6875 0.453125 -1.59375 0.453125q-0.6875 0 -1.109375 -0.234375q-0.421875 -0.234375 -0.65625 -0.53125q-0.21875 -0.3125 -0.34375 -0.515625l-0.09375 0l0 3.84375l-1.171875 0zm3.203125 -3.609375q0.671875 0 1.125 -0.359375q0.46875 -0.375 0.703125 -1.0q0.234375 -0.625 0.234375 -1.375q0 -0.765625 -0.234375 -1.375q-0.21875 -0.609375 -0.6875 -0.953125q-0.453125 -0.359375 -1.140625 -0.359375q-0.671875 0 -1.125 0.34375q-0.453125 0.328125 -0.6875 0.9375q-0.234375 0.59375 -0.234375 1.40625q0 0.796875 0.234375 1.421875q0.234375 0.609375 0.6875 0.96875q0.46875 0.34375 1.125 0.34375zm7.9108887 1.046875q-0.984375 0 -1.734375 -0.46875q-0.734375 -0.46875 -1.15625 -1.3125q-0.421875 -0.84375 -0.421875 -1.96875q0 -1.140625 0.421875 -1.984375q0.421875 -0.859375 1.15625 -1.3125q0.75 -0.46875 1.734375 -0.46875q1.0 0 1.75 0.46875q0.75 0.453125 1.15625 1.3125q0.421875 0.84375 0.421875 1.984375q0 1.125 -0.421875 1.96875q-0.40625 0.84375 -1.15625 1.3125q-0.75 0.46875 -1.75 0.46875zm0 -1.046875q0.734375 0 1.203125 -0.375q0.484375 -0.375 0.703125 -0.984375q0.234375 -0.625 0.234375 -1.34375q0 -0.71875 -0.234375 -1.34375q-0.21875 -0.625 -0.703125 -1.0q-0.46875 -0.375 -1.203125 -0.375q-0.71875 0 -1.1875 0.375q-0.46875 0.375 -0.703125 1.0q-0.21875 0.609375 -0.21875 1.34375q0 0.71875 0.21875 1.34375q0.234375 0.609375 0.703125 0.984375q0.46875 0.375 1.1875 0.375zm6.2104187 -3.46875l0 4.359375l-1.171875 0l0 -7.28125l1.125 0l0 1.765625l-0.15625 0q0.328125 -1.0 0.9375 -1.421875q0.625 -0.421875 1.453125 -0.421875q0.734375 0 1.28125 0.296875q0.5625 0.296875 0.859375 0.90625q0.3125 0.609375 0.3125 1.53125l0 4.625l-1.171875 0l0 -4.515625q0 -0.84375 -0.4375 -1.3125q-0.4375 -0.484375 -1.203125 -0.484375q-0.515625 0 -0.9375 0.234375q-0.40625 0.21875 -0.65625 0.65625q-0.234375 0.4375 -0.234375 1.0625zm9.765167 4.515625q-1.0625 0 -1.828125 -0.46875q-0.765625 -0.46875 -1.1875 -1.296875q-0.40625 -0.84375 -0.40625 -1.96875q0 -1.125 0.40625 -1.96875q0.40625 -0.859375 1.140625 -1.328125q0.75 -0.484375 1.734375 -0.484375q0.578125 0 1.140625 0.1875q0.5625 0.1875 1.015625 0.625q0.46875 0.421875 0.734375 1.125q0.28125 0.6875 0.28125 1.6875l0 0.5l-5.65625 0l0 -1.0l5.015625 0l-0.546875 0.375q0 -0.71875 -0.21875 -1.265625q-0.21875 -0.5625 -0.671875 -0.875q-0.4375 -0.328125 -1.09375 -0.328125q-0.65625 0 -1.125 0.328125q-0.46875 0.3125 -0.71875 0.84375q-0.25 0.515625 -0.25 1.109375l0 0.65625q0 0.796875 0.28125 1.359375q0.28125 0.5625 0.78125 0.859375q0.5 0.28125 1.171875 0.28125q0.421875 0 0.765625 -0.109375q0.359375 -0.125 0.609375 -0.375q0.265625 -0.265625 0.40625 -0.625l1.125 0.3125q-0.171875 0.546875 -0.578125 0.96875q-0.390625 0.40625 -1.0 0.640625q-0.59375 0.234375 -1.328125 0.234375zm5.8797607 -4.515625l0 4.359375l-1.171875 0l0 -7.28125l1.125 0l0 1.765625l-0.15625 0q0.328125 -1.0 0.9375 -1.421875q0.625 -0.421875 1.453125 -0.421875q0.734375 0 1.28125 0.296875q0.5625 0.296875 0.859375 0.90625q0.3125 0.609375 0.3125 1.53125l0 4.625l-1.171875 0l0 -4.515625q0 -0.84375 -0.4375 -1.3125q-0.4375 -0.484375 -1.203125 -0.484375q-0.515625 0 -0.9375 0.234375q-0.40625 0.21875 -0.65625 0.65625q-0.234375 0.4375 -0.234375 1.0625zm9.562042 -2.921875l0 1.0l-3.765625 0l0 -1.0l3.765625 0zm-2.671875 -1.71875l1.171875 0l0 7.109375q0 0.484375 0.203125 0.71875q0.203125 0.21875 0.65625 0.21875q0.109375 0 0.28125 -0.015625q0.171875 -0.03125 0.328125 -0.0625l0.234375 1.0q-0.1875 0.0625 -0.421875 0.09375q-0.21875 0.03125 -0.453125 0.03125q-0.9375 0 -1.46875 -0.5q-0.53125 -0.5 -0.53125 -1.390625l0 -7.203125zm6.511322 9.15625q-0.75 0 -1.328125 -0.21875q-0.578125 -0.21875 -0.96875 -0.640625q-0.375 -0.4375 -0.5 -1.0625l1.109375 -0.265625q0.15625 0.59375 0.59375 0.875q0.4375 0.28125 1.078125 0.28125q0.765625 0 1.21875 -0.3125q0.453125 -0.328125 0.453125 -0.78125q0 -0.375 -0.265625 -0.625q-0.265625 -0.25 -0.796875 -0.375l-1.21875 -0.296875q-0.984375 -0.234375 -1.46875 -0.71875q-0.484375 -0.5 -0.484375 -1.265625q0 -0.625 0.34375 -1.09375q0.359375 -0.484375 0.96875 -0.75q0.609375 -0.265625 1.390625 -0.265625q0.734375 0 1.265625 0.21875q0.53125 0.21875 0.859375 0.625q0.328125 0.390625 0.484375 0.90625l-1.0625 0.265625q-0.140625 -0.390625 -0.5 -0.703125q-0.34375 -0.328125 -1.046875 -0.328125q-0.65625 0 -1.09375 0.3125q-0.421875 0.296875 -0.421875 0.75q0 0.40625 0.28125 0.65625q0.296875 0.234375 0.9375 0.375l1.109375 0.265625q0.984375 0.234375 1.453125 0.734375q0.484375 0.484375 0.484375 1.234375q0 0.640625 -0.359375 1.140625q-0.359375 0.484375 -1.015625 0.78125q-0.640625 0.28125 -1.5 0.28125z" fill-rule="nonzero"/><path fill="#434343" d="m406.92035 53.330025l0 0c0 -9.019379 7.3116455 -16.331032 16.331024 -16.331032l113.51114 0c4.331299 0 8.485168 1.7205849 11.547791 4.783249c3.062683 3.0626602 4.783264 7.216526 4.783264 11.547783l0 65.32218c0 9.019386 -7.3116455 16.33104 -16.331055 16.33104l-113.51114 0c-9.019379 0 -16.331024 -7.311653 -16.331024 -16.33104z" fill-rule="evenodd"/><path stroke="#212121" stroke-width="8.0" stroke-linejoin="round" stroke-linecap="butt" d="m406.92035 53.330025l0 0c0 -9.019379 7.3116455 -16.331032 16.331024 -16.331032l113.51114 0c4.331299 0 8.485168 1.7205849 11.547791 4.783249c3.062683 3.0626602 4.783264 7.216526 4.783264 11.547783l0 65.32218c0 9.019386 -7.3116455 16.33104 -16.331055 16.33104l-113.51114 0c-9.019379 0 -16.331024 -7.311653 -16.331024 -16.33104z" fill-rule="evenodd"/><path fill="#ffffff" d="m441.3441 82.791115l0 -9.703125l1.234375 0l0 4.203125l5.09375 0l0 -4.203125l1.234375 0l0 9.703125l-1.234375 0l0 -4.40625l-5.09375 0l0 4.40625l-1.234375 0zm9.704468 2.640625l0.296875 -1.015625l0.125 0.03125q0.359375 0.09375 0.65625 0.046875q0.296875 -0.046875 0.53125 -0.296875q0.234375 -0.234375 0.40625 -0.765625l0.203125 -0.609375l-2.78125 -7.3125l1.296875 0l1.546875 4.3125q0.234375 0.6875 0.40625 1.359375q0.171875 0.65625 0.359375 1.28125l-0.421875 0q0.1875 -0.625 0.359375 -1.296875q0.171875 -0.671875 0.40625 -1.34375l1.5625 -4.3125l1.28125 0l-3.203125 8.375q-0.21875 0.578125 -0.53125 0.953125q-0.296875 0.375 -0.71875 0.546875q-0.40625 0.171875 -0.921875 0.171875q-0.3125 0 -0.546875 -0.046875q-0.21875 -0.03125 -0.3125 -0.078125zm7.61557 0.078125l0 -10.0l1.125 0l0 1.171875l0.140625 0q0.125 -0.203125 0.34375 -0.484375q0.21875 -0.296875 0.625 -0.53125q0.421875 -0.234375 1.140625 -0.234375q0.90625 0 1.59375 0.453125q0.703125 0.453125 1.09375 1.296875q0.390625 0.84375 0.390625 1.984375q0 1.171875 -0.390625 2.015625q-0.390625 0.84375 -1.09375 1.3125q-0.6875 0.453125 -1.59375 0.453125q-0.6875 0 -1.109375 -0.234375q-0.421875 -0.234375 -0.65625 -0.53125q-0.21875 -0.3125 -0.34375 -0.515625l-0.09375 0l0 3.84375l-1.171875 0zm3.203125 -3.609375q0.671875 0 1.125 -0.359375q0.46875 -0.375 0.703125 -1.0q0.234375 -0.625 0.234375 -1.375q0 -0.765625 -0.234375 -1.375q-0.21875 -0.609375 -0.6875 -0.953125q-0.453125 -0.359375 -1.140625 -0.359375q-0.671875 0 -1.125 0.34375q-0.453125 0.328125 -0.6875 0.9375q-0.234375 0.59375 -0.234375 1.40625q0 0.796875 0.234375 1.421875q0.234375 0.609375 0.6875 0.96875q0.46875 0.34375 1.125 0.34375zm7.9108887 1.046875q-0.984375 0 -1.734375 -0.46875q-0.734375 -0.46875 -1.15625 -1.3125q-0.421875 -0.84375 -0.421875 -1.96875q0 -1.140625 0.421875 -1.984375q0.421875 -0.859375 1.15625 -1.3125q0.75 -0.46875 1.734375 -0.46875q1.0 0 1.75 0.46875q0.75 0.453125 1.15625 1.3125q0.421875 0.84375 0.421875 1.984375q0 1.125 -0.421875 1.96875q-0.40625 0.84375 -1.15625 1.3125q-0.75 0.46875 -1.75 0.46875zm0 -1.046875q0.734375 0 1.203125 -0.375q0.484375 -0.375 0.703125 -0.984375q0.234375 -0.625 0.234375 -1.34375q0 -0.71875 -0.234375 -1.34375q-0.21875 -0.625 -0.703125 -1.0q-0.46875 -0.375 -1.203125 -0.375q-0.71875 0 -1.1875 0.375q-0.46875 0.375 -0.703125 1.0q-0.21875 0.609375 -0.21875 1.34375q0 0.71875 0.21875 1.34375q0.234375 0.609375 0.703125 0.984375q0.46875 0.375 1.1875 0.375zm7.8979187 -6.390625l0 1.0l-3.765625 0l0 -1.0l3.765625 0zm-2.671875 -1.71875l1.171875 0l0 7.109375q0 0.484375 0.203125 0.71875q0.203125 0.21875 0.65625 0.21875q0.109375 0 0.28125 -0.015625q0.171875 -0.03125 0.328125 -0.0625l0.234375 1.0q-0.1875 0.0625 -0.421875 0.09375q-0.21875 0.03125 -0.453125 0.03125q-0.9375 0 -1.46875 -0.5q-0.53125 -0.5 -0.53125 -1.390625l0 -7.203125zm5.344635 4.640625l0 4.359375l-1.171875 0l0 -9.703125l1.171875 0l0 4.1875l-0.203125 0q0.328125 -1.0 0.9375 -1.421875q0.625 -0.421875 1.453125 -0.421875q0.734375 0 1.28125 0.296875q0.5625 0.296875 0.875 0.90625q0.3125 0.609375 0.3125 1.53125l0 4.625l-1.1875 0l0 -4.515625q0 -0.84375 -0.4375 -1.3125q-0.4375 -0.484375 -1.203125 -0.484375q-0.515625 0 -0.9375 0.234375q-0.40625 0.21875 -0.65625 0.65625q-0.234375 0.4375 -0.234375 1.0625zm9.7716675 4.515625q-1.0625 0 -1.828125 -0.46875q-0.765625 -0.46875 -1.1875 -1.296875q-0.40625 -0.84375 -0.40625 -1.96875q0 -1.125 0.40625 -1.96875q0.40625 -0.859375 1.140625 -1.328125q0.75 -0.484375 1.734375 -0.484375q0.578125 0 1.140625 0.1875q0.5625 0.1875 1.015625 0.625q0.46875 0.421875 0.734375 1.125q0.28125 0.6875 0.28125 1.6875l0 0.5l-5.65625 0l0 -1.0l5.015625 0l-0.546875 0.375q0 -0.71875 -0.21875 -1.265625q-0.21875 -0.5625 -0.671875 -0.875q-0.4375 -0.328125 -1.09375 -0.328125q-0.65625 0 -1.125 0.328125q-0.46875 0.3125 -0.71875 0.84375q-0.25 0.515625 -0.25 1.109375l0 0.65625q0 0.796875 0.28125 1.359375q0.28125 0.5625 0.78125 0.859375q0.5 0.28125 1.171875 0.28125q0.421875 0 0.765625 -0.109375q0.359375 -0.125 0.609375 -0.375q0.265625 -0.265625 0.40625 -0.625l1.125 0.3125q-0.171875 0.546875 -0.578125 0.96875q-0.390625 0.40625 -1.0 0.640625q-0.59375 0.234375 -1.328125 0.234375zm7.5672913 -7.4375l0 1.0l-3.765625 0l0 -1.0l3.765625 0zm-2.671875 -1.71875l1.171875 0l0 7.109375q0 0.484375 0.203125 0.71875q0.203125 0.21875 0.65625 0.21875q0.109375 0 0.28125 -0.015625q0.171875 -0.03125 0.328125 -0.0625l0.234375 1.0q-0.1875 0.0625 -0.421875 0.09375q-0.21875 0.03125 -0.453125 0.03125q-0.9375 0 -1.46875 -0.5q-0.53125 -0.5 -0.53125 -1.390625l0 -7.203125zm4.17276 9.0l0 -7.28125l1.171875 0l0 7.28125l-1.171875 0zm0.59375 -8.46875q-0.328125 0 -0.578125 -0.21875q-0.234375 -0.234375 -0.234375 -0.546875q0 -0.328125 0.234375 -0.546875q0.25 -0.234375 0.578125 -0.234375q0.34375 0 0.578125 0.234375q0.234375 0.21875 0.234375 0.546875q0 0.3125 -0.234375 0.546875q-0.234375 0.21875 -0.578125 0.21875zm5.5872803 8.625q-0.984375 0 -1.734375 -0.46875q-0.734375 -0.46875 -1.15625 -1.3125q-0.421875 -0.84375 -0.421875 -1.96875q0 -1.140625 0.421875 -1.984375q0.421875 -0.859375 1.15625 -1.3125q0.75 -0.46875 1.734375 -0.46875q0.53125 0 1.0 0.140625q0.46875 0.125 0.859375 0.390625q0.390625 0.25 0.65625 0.625q0.28125 0.375 0.4375 0.84375l-1.125 0.328125q-0.078125 -0.28125 -0.25 -0.515625q-0.15625 -0.234375 -0.390625 -0.40625q-0.21875 -0.171875 -0.53125 -0.265625q-0.296875 -0.09375 -0.65625 -0.09375q-0.71875 0 -1.1875 0.375q-0.46875 0.375 -0.703125 1.0q-0.21875 0.609375 -0.21875 1.34375q0 0.71875 0.21875 1.34375q0.234375 0.609375 0.703125 0.984375q0.46875 0.375 1.1875 0.375q0.375 0 0.671875 -0.09375q0.3125 -0.109375 0.546875 -0.28125q0.234375 -0.171875 0.390625 -0.421875q0.171875 -0.25 0.25 -0.546875l1.125 0.328125q-0.15625 0.484375 -0.4375 0.875q-0.28125 0.375 -0.671875 0.640625q-0.390625 0.265625 -0.875 0.40625q-0.46875 0.140625 -1.0 0.140625zm6.822571 0.015625q-0.6875305 0 -1.2500305 -0.25q-0.5625 -0.265625 -0.90625 -0.765625q-0.328125 -0.515625 -0.328125 -1.21875q0 -0.625 0.25 -1.015625q0.25 -0.390625 0.65625 -0.609375q0.421875 -0.234375 0.921875 -0.34375q0.5000305 -0.109375 1.0156555 -0.171875q0.640625 -0.09375 1.046875 -0.140625q0.421875 -0.046875 0.609375 -0.15625q0.203125 -0.109375 0.203125 -0.375l0 -0.03125q0 -0.46875 -0.171875 -0.78125q-0.15625 -0.3125 -0.5 -0.484375q-0.34375 -0.171875 -0.84375 -0.171875q-0.53125 0 -0.9062805 0.171875q-0.359375 0.15625 -0.59375 0.40625q-0.234375 0.234375 -0.34375 0.5l-1.125 -0.375q0.28125 -0.671875 0.75 -1.03125q0.484375 -0.375 1.046875 -0.53125q0.5781555 -0.15625 1.1406555 -0.15625q0.359375 0 0.828125 0.09375q0.46875 0.078125 0.890625 0.34375q0.4375 0.25 0.71875 0.765625q0.28125 0.5 0.28125 1.359375l0 4.796875l-1.15625 0l0 -0.984375l-0.078125 0q-0.109375 0.25 -0.390625 0.53125q-0.265625 0.265625 -0.703125 0.453125q-0.4375 0.171875 -1.0625 0.171875zm0.203125 -1.03125q0.65625 0 1.09375 -0.25q0.453125 -0.265625 0.6875 -0.671875q0.234375 -0.40625 0.234375 -0.84375l0 -1.015625q-0.0625 0.09375 -0.3125 0.15625q-0.234375 0.0625 -0.546875 0.125q-0.3125 0.046875 -0.609375 0.09375q-0.28125 0.03125 -0.453125 0.046875q-0.421875 0.046875 -0.7969055 0.171875q-0.359375 0.125 -0.578125 0.375q-0.21875 0.25 -0.21875 0.65625q0 0.375 0.1875 0.640625q0.203125 0.25 0.53125 0.390625q0.34375 0.125 0.7812805 0.125zm6.421509 -8.84375l0 9.703125l-1.171875 0l0 -9.703125l1.171875 0z" fill-rule="nonzero"/><path fill="#ffffff" d="m456.628 98.96299q-0.6875 0 -1.25 -0.25q-0.5625 -0.265625 -0.90625 -0.765625q-0.328125 -0.515625 -0.328125 -1.21875q0 -0.625 0.25 -1.015625q0.25 -0.390625 0.65625 -0.609375q0.421875 -0.234375 0.921875 -0.34375q0.5 -0.109375 1.015625 -0.171875q0.640625 -0.09375 1.046875 -0.140625q0.421875 -0.046875 0.609375 -0.15625q0.203125 -0.109375 0.203125 -0.375l0 -0.03125q0 -0.46875 -0.171875 -0.78125q-0.15625 -0.3125 -0.5 -0.484375q-0.34375 -0.171875 -0.84375 -0.171875q-0.53125 0 -0.90625 0.171875q-0.359375 0.15625 -0.59375 0.40625q-0.234375 0.234375 -0.34375 0.5l-1.125 -0.375q0.28125 -0.671875 0.75 -1.03125q0.484375 -0.375 1.046875 -0.53125q0.578125 -0.15625 1.140625 -0.15625q0.359375 0 0.828125 0.09375q0.46875 0.078125 0.890625 0.34375q0.4375 0.25 0.71875 0.765625q0.28125 0.5 0.28125 1.359375l0 4.796875l-1.15625 0l0 -0.984375l-0.078125 0q-0.109375 0.25 -0.390625 0.53125q-0.265625 0.265625 -0.703125 0.453125q-0.4375 0.171875 -1.0625 0.171875zm0.203125 -1.03125q0.65625 0 1.09375 -0.25q0.453125 -0.265625 0.6875 -0.671875q0.234375 -0.40625 0.234375 -0.84375l0 -1.015625q-0.0625 0.09375 -0.3125 0.15625q-0.234375 0.0625 -0.546875 0.125q-0.3125 0.046875 -0.609375 0.09375q-0.28125 0.03125 -0.453125 0.046875q-0.421875 0.046875 -0.796875 0.171875q-0.359375 0.125 -0.578125 0.375q-0.21875 0.25 -0.21875 0.65625q0 0.375 0.1875 0.640625q0.203125 0.25 0.53125 0.390625q0.34375 0.125 0.78125 0.125zm6.42157 -3.5l0 4.359375l-1.171875 0l0 -7.28125l1.125 0l0 1.765625l-0.15625 0q0.328125 -1.0 0.9375 -1.421875q0.625 -0.421875 1.453125 -0.421875q0.734375 0 1.28125 0.296875q0.5625 0.296875 0.859375 0.90625q0.3125 0.609375 0.3125 1.53125l0 4.625l-1.171875 0l0 -4.515625q0 -0.84375 -0.4375 -1.3125q-0.4375 -0.484375 -1.203125 -0.484375q-0.515625 0 -0.9375 0.234375q-0.40625 0.21875 -0.65625 0.65625q-0.234375 0.4375 -0.234375 1.0625zm9.171387 4.515625q-0.75 0 -1.328125 -0.21875q-0.578125 -0.21875 -0.96875 -0.640625q-0.375 -0.4375 -0.5 -1.0625l1.109375 -0.265625q0.15625 0.59375 0.59375 0.875q0.4375 0.28125 1.078125 0.28125q0.765625 0 1.21875 -0.3125q0.453125 -0.328125 0.453125 -0.78125q0 -0.375 -0.265625 -0.625q-0.265625 -0.25 -0.796875 -0.375l-1.21875 -0.296875q-0.984375 -0.234375 -1.46875 -0.71875q-0.484375 -0.5 -0.484375 -1.265625q0 -0.625 0.34375 -1.09375q0.359375 -0.484375 0.96875 -0.75q0.609375 -0.265625 1.390625 -0.265625q0.734375 0 1.265625 0.21875q0.53125 0.21875 0.859375 0.625q0.328125 0.390625 0.484375 0.90625l-1.0625 0.265625q-0.140625 -0.390625 -0.5 -0.703125q-0.34375 -0.328125 -1.046875 -0.328125q-0.65625 0 -1.09375 0.3125q-0.421875 0.296875 -0.421875 0.75q0 0.40625 0.28125 0.65625q0.296875 0.234375 0.9375 0.375l1.109375 0.265625q0.984375 0.234375 1.453125 0.734375q0.484375 0.484375 0.484375 1.234375q0 0.640625 -0.359375 1.140625q-0.359375 0.484375 -1.015625 0.78125q-0.640625 0.28125 -1.5 0.28125zm6.191284 -0.15625l-2.203125 -7.28125l1.25 0l0.875 3.1875q0.1875 0.640625 0.390625 1.46875q0.21875 0.828125 0.421875 1.859375l-0.203125 0q0.1875 -0.984375 0.390625 -1.8125q0.203125 -0.828125 0.390625 -1.515625l0.875 -3.1875l1.25 0l0.859375 3.1875q0.171875 0.671875 0.375 1.5q0.203125 0.8125 0.390625 1.828125l-0.203125 0q0.203125 -1.0 0.40625 -1.828125q0.21875 -0.828125 0.40625 -1.5l0.875 -3.1875l1.25 0l-2.203125 7.28125l-1.171875 0l-0.9375 -3.296875q-0.140625 -0.5 -0.28125 -1.015625q-0.140625 -0.515625 -0.28125 -1.0625q-0.125 -0.546875 -0.25 -1.125l0.25 0q-0.125 0.5625 -0.265625 1.125q-0.125 0.546875 -0.265625 1.078125q-0.140625 0.515625 -0.28125 1.0l-0.9375 3.296875l-1.171875 0zm12.103821 0.15625q-1.0625 0 -1.828125 -0.46875q-0.765625 -0.46875 -1.1875 -1.296875q-0.40625 -0.84375 -0.40625 -1.96875q0 -1.125 0.40625 -1.96875q0.40625 -0.859375 1.140625 -1.328125q0.75 -0.484375 1.734375 -0.484375q0.578125 0 1.140625 0.1875q0.5625 0.1875 1.015625 0.625q0.46875 0.421875 0.734375 1.125q0.28125 0.6875 0.28125 1.6875l0 0.5l-5.65625 0l0 -1.0l5.015625 0l-0.546875 0.375q0 -0.71875 -0.21875 -1.265625q-0.21875 -0.5625 -0.671875 -0.875q-0.4375 -0.328125 -1.09375 -0.328125q-0.65625 0 -1.125 0.328125q-0.46875 0.3125 -0.71875 0.84375q-0.25 0.515625 -0.25 1.109375l0 0.65625q0 0.796875 0.28125 1.359375q0.28125 0.5625 0.78125 0.859375q0.5 0.28125 1.171875 0.28125q0.421875 0 0.765625 -0.109375q0.359375 -0.125 0.609375 -0.375q0.265625 -0.265625 0.40625 -0.625l1.125 0.3125q-0.171875 0.546875 -0.578125 0.96875q-0.390625 0.40625 -1.0 0.640625q-0.59375 0.234375 -1.328125 0.234375zm4.7078857 -0.15625l0 -7.28125l1.125 0l0 1.125l0.078125 0q0.203125 -0.546875 0.71875 -0.875q0.515625 -0.34375 1.171875 -0.34375q0.125 0 0.296875 0.015625q0.1875 0 0.296875 0l0 1.171875q-0.046875 -0.015625 -0.265625 -0.03125q-0.203125 -0.03125 -0.4375 -0.03125q-0.515625 0 -0.9375 0.21875q-0.40625 0.21875 -0.640625 0.609375q-0.234375 0.375 -0.234375 0.859375l0 4.5625l-1.171875 0zm7.486328 0.15625q-0.75 0 -1.328125 -0.21875q-0.578125 -0.21875 -0.96875 -0.640625q-0.375 -0.4375 -0.5 -1.0625l1.109375 -0.265625q0.15625 0.59375 0.59375 0.875q0.4375 0.28125 1.078125 0.28125q0.765625 0 1.21875 -0.3125q0.453125 -0.328125 0.453125 -0.78125q0 -0.375 -0.265625 -0.625q-0.265625 -0.25 -0.796875 -0.375l-1.21875 -0.296875q-0.984375 -0.234375 -1.46875 -0.71875q-0.484375 -0.5 -0.484375 -1.265625q0 -0.625 0.34375 -1.09375q0.359375 -0.484375 0.96875 -0.75q0.609375 -0.265625 1.390625 -0.265625q0.734375 0 1.265625 0.21875q0.53125 0.21875 0.859375 0.625q0.328125 0.390625 0.484375 0.90625l-1.0625 0.265625q-0.140625 -0.390625 -0.5 -0.703125q-0.34375 -0.328125 -1.046875 -0.328125q-0.65625 0 -1.09375 0.3125q-0.421875 0.296875 -0.421875 0.75q0 0.40625 0.28125 0.65625q0.296875 0.234375 0.9375 0.375l1.109375 0.265625q0.984375 0.234375 1.453125 0.734375q0.484375 0.484375 0.484375 1.234375q0 0.640625 -0.359375 1.140625q-0.359375 0.484375 -1.015625 0.78125q-0.640625 0.28125 -1.5 0.28125z" fill-rule="nonzero"/><path fill="#434343" d="m595.4592 53.330025l0 0c0 -9.019379 7.3116455 -16.331032 16.331055 -16.331032l113.51117 0c4.331238 0 8.485107 1.7205849 11.547791 4.783249c3.062622 3.0626602 4.783203 7.216526 4.783203 11.547783l0 65.32218c0 9.019386 -7.3116455 16.33104 -16.330994 16.33104l-113.51117 0c-9.019409 0 -16.331055 -7.311653 -16.331055 -16.33104z" fill-rule="evenodd"/><path stroke="#212121" stroke-width="8.0" stroke-linejoin="round" stroke-linecap="butt" d="m595.4592 53.330025l0 0c0 -9.019379 7.3116455 -16.331032 16.331055 -16.331032l113.51117 0c4.331238 0 8.485107 1.7205849 11.547791 4.783249c3.062622 3.0626602 4.783203 7.216526 4.783203 11.547783l0 65.32218c0 9.019386 -7.3116455 16.33104 -16.330994 16.33104l-113.51117 0c-9.019409 0 -16.331055 -7.311653 -16.331055 -16.33104z" fill-rule="evenodd"/><path fill="#ffffff" d="m646.7417 82.791115l0 -9.703125l3.3125 0q1.140625 0 1.875 0.421875q0.734375 0.40625 1.078125 1.109375q0.359375 0.6875 0.359375 1.5625q0 0.859375 -0.359375 1.5625q-0.34375 0.703125 -1.078125 1.125q-0.734375 0.421875 -1.859375 0.421875l-2.359375 0l0 -1.09375l2.296875 0q0.765625 0 1.234375 -0.265625q0.46875 -0.265625 0.671875 -0.71875q0.21875 -0.46875 0.21875 -1.03125q0 -0.578125 -0.21875 -1.03125q-0.203125 -0.453125 -0.671875 -0.703125q-0.46875 -0.265625 -1.25 -0.265625l-2.015625 0l0 8.609375l-1.234375 0zm10.402893 0.171875q-0.6875 0 -1.25 -0.25q-0.5625 -0.265625 -0.90625 -0.765625q-0.328125 -0.515625 -0.328125 -1.21875q0 -0.625 0.25 -1.015625q0.25 -0.390625 0.65625 -0.609375q0.421875 -0.234375 0.921875 -0.34375q0.5 -0.109375 1.015625 -0.171875q0.640625 -0.09375 1.046875 -0.140625q0.421875 -0.046875 0.609375 -0.15625q0.203125 -0.109375 0.203125 -0.375l0 -0.03125q0 -0.46875 -0.171875 -0.78125q-0.15625 -0.3125 -0.5 -0.484375q-0.34375 -0.171875 -0.84375 -0.171875q-0.53125 0 -0.90625 0.171875q-0.359375 0.15625 -0.59375 0.40625q-0.234375 0.234375 -0.34375 0.5l-1.125 -0.375q0.28125 -0.671875 0.75 -1.03125q0.484375 -0.375 1.046875 -0.53125q0.578125 -0.15625 1.140625 -0.15625q0.359375 0 0.828125 0.09375q0.46875 0.078125 0.890625 0.34375q0.4375 0.25 0.71875 0.765625q0.28125 0.5 0.28125 1.359375l0 4.796875l-1.15625 0l0 -0.984375l-0.078125 0q-0.109375 0.25 -0.390625 0.53125q-0.265625 0.265625 -0.703125 0.453125q-0.4375 0.171875 -1.0625 0.171875zm0.203125 -1.03125q0.65625 0 1.09375 -0.25q0.453125 -0.265625 0.6875 -0.671875q0.234375 -0.40625 0.234375 -0.84375l0 -1.015625q-0.0625 0.09375 -0.3125 0.15625q-0.234375 0.0625 -0.546875 0.125q-0.3125 0.046875 -0.609375 0.09375q-0.28125 0.03125 -0.453125 0.046875q-0.421875 0.046875 -0.796875 0.171875q-0.359375 0.125 -0.578125 0.375q-0.21875 0.25 -0.21875 0.65625q0 0.375 0.1875 0.640625q0.203125 0.25 0.53125 0.390625q0.34375 0.125 0.78125 0.125zm5.249695 0.859375l0 -7.28125l1.125 0l0 1.125l0.078125 0q0.203125 -0.546875 0.71875 -0.875q0.515625 -0.34375 1.171875 -0.34375q0.125 0 0.296875 0.015625q0.1875 0 0.296875 0l0 1.171875q-0.046875 -0.015625 -0.265625 -0.03125q-0.203125 -0.03125 -0.4375 -0.03125q-0.515625 0 -0.9375 0.21875q-0.40625 0.21875 -0.640625 0.609375q-0.234375 0.375 -0.234375 0.859375l0 4.5625l-1.171875 0zm7.048828 0.171875q-0.6875 0 -1.25 -0.25q-0.5625 -0.265625 -0.90625 -0.765625q-0.328125 -0.515625 -0.328125 -1.21875q0 -0.625 0.25 -1.015625q0.25 -0.390625 0.65625 -0.609375q0.421875 -0.234375 0.921875 -0.34375q0.5 -0.109375 1.015625 -0.171875q0.640625 -0.09375 1.046875 -0.140625q0.421875 -0.046875 0.609375 -0.15625q0.203125 -0.109375 0.203125 -0.375l0 -0.03125q0 -0.46875 -0.171875 -0.78125q-0.15625 -0.3125 -0.5 -0.484375q-0.34375 -0.171875 -0.84375 -0.171875q-0.53125 0 -0.90625 0.171875q-0.359375 0.15625 -0.59375 0.40625q-0.234375 0.234375 -0.34375 0.5l-1.125 -0.375q0.28125 -0.671875 0.75 -1.03125q0.484375 -0.375 1.046875 -0.53125q0.578125 -0.15625 1.140625 -0.15625q0.359375 0 0.828125 0.09375q0.46875 0.078125 0.890625 0.34375q0.4375 0.25 0.71875 0.765625q0.28125 0.5 0.28125 1.359375l0 4.796875l-1.15625 0l0 -0.984375l-0.078125 0q-0.109375 0.25 -0.390625 0.53125q-0.265625 0.265625 -0.703125 0.453125q-0.4375 0.171875 -1.0625 0.171875zm0.203125 -1.03125q0.65625 0 1.09375 -0.25q0.453125 -0.265625 0.6875 -0.671875q0.234375 -0.40625 0.234375 -0.84375l0 -1.015625q-0.0625 0.09375 -0.3125 0.15625q-0.234375 0.0625 -0.546875 0.125q-0.3125 0.046875 -0.609375 0.09375q-0.28125 0.03125 -0.453125 0.046875q-0.421875 0.046875 -0.796875 0.171875q-0.359375 0.125 -0.578125 0.375q-0.21875 0.25 -0.21875 0.65625q0 0.375 0.1875 0.640625q0.203125 0.25 0.53125 0.390625q0.34375 0.125 0.78125 0.125zm6.42157 -8.84375l0 9.703125l-1.171875 0l0 -9.703125l1.171875 0zm3.2279053 0l0 9.703125l-1.171875 0l0 -9.703125l1.171875 0zm5.1185303 9.859375q-1.0625 0 -1.828125 -0.46875q-0.765625 -0.46875 -1.1875 -1.296875q-0.40625 -0.84375 -0.40625 -1.96875q0 -1.125 0.40625 -1.96875q0.40625 -0.859375 1.140625 -1.328125q0.75 -0.484375 1.734375 -0.484375q0.578125 0 1.140625 0.1875q0.5625 0.1875 1.015625 0.625q0.46875 0.421875 0.734375 1.125q0.28125 0.6875 0.28125 1.6875l0 0.5l-5.65625 0l0 -1.0l5.015625 0l-0.546875 0.375q0 -0.71875 -0.21875 -1.265625q-0.21875 -0.5625 -0.671875 -0.875q-0.4375 -0.328125 -1.09375 -0.328125q-0.65625 0 -1.125 0.328125q-0.46875 0.3125 -0.71875 0.84375q-0.25 0.515625 -0.25 1.109375l0 0.65625q0 0.796875 0.28125 1.359375q0.28125 0.5625 0.78125 0.859375q0.5 0.28125 1.171875 0.28125q0.421875 0 0.765625 -0.109375q0.359375 -0.125 0.609375 -0.375q0.265625 -0.265625 0.40625 -0.625l1.125 0.3125q-0.171875 0.546875 -0.578125 0.96875q-0.390625 0.40625 -1.0 0.640625q-0.59375 0.234375 -1.328125 0.234375zm5.8797607 -9.859375l0 9.703125l-1.171875 0l0 -9.703125l1.171875 0z" fill-rule="nonzero"/><path fill="#ffffff" d="m650.6903 98.947365q-0.75 0 -1.328125 -0.21875q-0.578125 -0.21875 -0.96875 -0.640625q-0.375 -0.4375 -0.5 -1.0625l1.109375 -0.265625q0.15625 0.59375 0.59375 0.875q0.4375 0.28125 1.078125 0.28125q0.765625 0 1.21875 -0.3125q0.453125 -0.328125 0.453125 -0.78125q0 -0.375 -0.265625 -0.625q-0.265625 -0.25 -0.796875 -0.375l-1.21875 -0.296875q-0.984375 -0.234375 -1.46875 -0.71875q-0.484375 -0.5 -0.484375 -1.265625q0 -0.625 0.34375 -1.09375q0.359375 -0.484375 0.96875 -0.75q0.609375 -0.265625 1.390625 -0.265625q0.734375 0 1.265625 0.21875q0.53125 0.21875 0.859375 0.625q0.328125 0.390625 0.484375 0.90625l-1.0625 0.265625q-0.140625 -0.390625 -0.5 -0.703125q-0.34375 -0.328125 -1.046875 -0.328125q-0.65625 0 -1.09375 0.3125q-0.421875 0.296875 -0.421875 0.75q0 0.40625 0.28125 0.65625q0.296875 0.234375 0.9375 0.375l1.109375 0.265625q0.984375 0.234375 1.453125 0.734375q0.484375 0.484375 0.484375 1.234375q0 0.640625 -0.359375 1.140625q-0.359375 0.484375 -1.015625 0.78125q-0.640625 0.28125 -1.5 0.28125zm7.628723 0q-1.0625 0 -1.828125 -0.46875q-0.765625 -0.46875 -1.1875 -1.296875q-0.40625 -0.84375 -0.40625 -1.96875q0 -1.125 0.40625 -1.96875q0.40625 -0.859375 1.140625 -1.328125q0.75 -0.484375 1.734375 -0.484375q0.578125 0 1.140625 0.1875q0.5625 0.1875 1.015625 0.625q0.46875 0.421875 0.734375 1.125q0.28125 0.6875 0.28125 1.6875l0 0.5l-5.65625 0l0 -1.0l5.015625 0l-0.546875 0.375q0 -0.71875 -0.21875 -1.265625q-0.21875 -0.5625 -0.671875 -0.875q-0.4375 -0.328125 -1.09375 -0.328125q-0.65625 0 -1.125 0.328125q-0.46875 0.3125 -0.71875 0.84375q-0.25 0.515625 -0.25 1.109375l0 0.65625q0 0.796875 0.28125 1.359375q0.28125 0.5625 0.78125 0.859375q0.5 0.28125 1.171875 0.28125q0.421875 0 0.765625 -0.109375q0.359375 -0.125 0.609375 -0.375q0.265625 -0.265625 0.40625 -0.625l1.125 0.3125q-0.171875 0.546875 -0.578125 0.96875q-0.390625 0.40625 -1.0 0.640625q-0.59375 0.234375 -1.328125 0.234375zm6.869385 0.015625q-0.6875 0 -1.25 -0.25q-0.5625 -0.265625 -0.90625 -0.765625q-0.328125 -0.515625 -0.328125 -1.21875q0 -0.625 0.25 -1.015625q0.25 -0.390625 0.65625 -0.609375q0.421875 -0.234375 0.921875 -0.34375q0.5 -0.109375 1.015625 -0.171875q0.640625 -0.09375 1.046875 -0.140625q0.421875 -0.046875 0.609375 -0.15625q0.203125 -0.109375 0.203125 -0.375l0 -0.03125q0 -0.46875 -0.171875 -0.78125q-0.15625 -0.3125 -0.5 -0.484375q-0.34375 -0.171875 -0.84375 -0.171875q-0.53125 0 -0.90625 0.171875q-0.359375 0.15625 -0.59375 0.40625q-0.234375 0.234375 -0.34375 0.5l-1.125 -0.375q0.28125 -0.671875 0.75 -1.03125q0.484375 -0.375 1.046875 -0.53125q0.578125 -0.15625 1.140625 -0.15625q0.359375 0 0.828125 0.09375q0.46875 0.078125 0.890625 0.34375q0.4375 0.25 0.71875 0.765625q0.28125 0.5 0.28125 1.359375l0 4.796875l-1.15625 0l0 -0.984375l-0.078125 0q-0.109375 0.25 -0.390625 0.53125q-0.265625 0.265625 -0.703125 0.453125q-0.4375 0.171875 -1.0625 0.171875zm0.203125 -1.03125q0.65625 0 1.09375 -0.25q0.453125 -0.265625 0.6875 -0.671875q0.234375 -0.40625 0.234375 -0.84375l0 -1.015625q-0.0625 0.09375 -0.3125 0.15625q-0.234375 0.0625 -0.546875 0.125q-0.3125 0.046875 -0.609375 0.09375q-0.28125 0.03125 -0.453125 0.046875q-0.421875 0.046875 -0.796875 0.171875q-0.359375 0.125 -0.578125 0.375q-0.21875 0.25 -0.21875 0.65625q0 0.375 0.1875 0.640625q0.203125 0.25 0.53125 0.390625q0.34375 0.125 0.78125 0.125zm5.249695 0.859375l0 -7.28125l1.125 0l0 1.125l0.078125 0q0.203125 -0.546875 0.71875 -0.875q0.515625 -0.34375 1.171875 -0.34375q0.125 0 0.296875 0.015625q0.1875 0 0.296875 0l0 1.171875q-0.046875 -0.015625 -0.265625 -0.03125q-0.203125 -0.03125 -0.4375 -0.03125q-0.515625 0 -0.9375 0.21875q-0.40625 0.21875 -0.640625 0.609375q-0.234375 0.375 -0.234375 0.859375l0 4.5625l-1.171875 0zm7.7493286 0.15625q-0.984375 0 -1.734375 -0.46875q-0.734375 -0.46875 -1.15625 -1.3125q-0.421875 -0.84375 -0.421875 -1.96875q0 -1.140625 0.421875 -1.984375q0.421875 -0.859375 1.15625 -1.3125q0.75 -0.46875 1.734375 -0.46875q0.53125 0 1.0 0.140625q0.46875 0.125 0.859375 0.390625q0.390625 0.25 0.65625 0.625q0.28125 0.375 0.4375 0.84375l-1.125 0.328125q-0.078125 -0.28125 -0.25 -0.515625q-0.15625 -0.234375 -0.390625 -0.40625q-0.21875 -0.171875 -0.53125 -0.265625q-0.296875 -0.09375 -0.65625 -0.09375q-0.71875 0 -1.1875 0.375q-0.46875 0.375 -0.703125 1.0q-0.21875 0.609375 -0.21875 1.34375q0 0.71875 0.21875 1.34375q0.234375 0.609375 0.703125 0.984375q0.46875 0.375 1.1875 0.375q0.375 0 0.671875 -0.09375q0.3125 -0.109375 0.546875 -0.28125q0.234375 -0.171875 0.390625 -0.421875q0.171875 -0.25 0.25 -0.546875l1.125 0.328125q-0.15625 0.484375 -0.4375 0.875q-0.28125 0.375 -0.671875 0.640625q-0.390625 0.265625 -0.875 0.40625q-0.46875 0.140625 -1.0 0.140625zm5.832947 -4.515625l0 4.359375l-1.171875 0l0 -9.703125l1.171875 0l0 4.1875l-0.203125 0q0.328125 -1.0 0.9375 -1.421875q0.625 -0.421875 1.453125 -0.421875q0.734375 0 1.28125 0.296875q0.5625 0.296875 0.875 0.90625q0.3125 0.609375 0.3125 1.53125l0 4.625l-1.1875 0l0 -4.515625q0 -0.84375 -0.4375 -1.3125q-0.4375 -0.484375 -1.203125 -0.484375q-0.515625 0 -0.9375 0.234375q-0.40625 0.21875 -0.65625 0.65625q-0.234375 0.4375 -0.234375 1.0625z" fill-rule="nonzero"/><path fill="#434343" d="m783.99817 53.330025l0 0c0 -9.019379 7.3116455 -16.331032 16.330994 -16.331032l113.51117 0c4.331299 0 8.485107 1.7205849 11.547791 4.783249c3.062683 3.0626602 4.783264 7.216526 4.783264 11.547783l0 65.32218c0 9.019386 -7.3116455 16.33104 -16.331055 16.33104l-113.51117 0c-9.019348 0 -16.330994 -7.311653 -16.330994 -16.33104z" fill-rule="evenodd"/><path stroke="#212121" stroke-width="8.0" stroke-linejoin="round" stroke-linecap="butt" d="m783.99817 53.330025l0 0c0 -9.019379 7.3116455 -16.331032 16.330994 -16.331032l113.51117 0c4.331299 0 8.485107 1.7205849 11.547791 4.783249c3.062683 3.0626602 4.783264 7.216526 4.783264 11.547783l0 65.32218c0 9.019386 -7.3116455 16.33104 -16.331055 16.33104l-113.51117 0c-9.019348 0 -16.330994 -7.311653 -16.330994 -16.33104z" fill-rule="evenodd"/><path fill="#ffffff" d="m829.0298 82.791115l0 -9.703125l3.3125 0q1.140625 0 1.875 0.390625q0.734375 0.390625 1.078125 1.078125q0.359375 0.671875 0.359375 1.53125q0 0.859375 -0.359375 1.53125q-0.34375 0.65625 -1.078125 1.03125q-0.734375 0.375 -1.859375 0.375l-2.640625 0l0 -1.09375l2.578125 0q0.765625 0 1.234375 -0.21875q0.46875 -0.234375 0.671875 -0.640625q0.21875 -0.421875 0.21875 -0.984375q0 -0.578125 -0.21875 -1.0q-0.203125 -0.4375 -0.671875 -0.671875q-0.46875 -0.234375 -1.25 -0.234375l-2.015625 0l0 8.609375l-1.234375 0zm5.5625 0l-2.328125 -4.359375l1.390625 0l2.375 4.359375l-1.4375 0zm4.840393 0.171875q-0.6875 0 -1.25 -0.25q-0.5625 -0.265625 -0.90625 -0.765625q-0.328125 -0.515625 -0.328125 -1.21875q0 -0.625 0.25 -1.015625q0.25 -0.390625 0.65625 -0.609375q0.421875 -0.234375 0.921875 -0.34375q0.5 -0.109375 1.015625 -0.171875q0.640625 -0.09375 1.046875 -0.140625q0.421875 -0.046875 0.609375 -0.15625q0.203125 -0.109375 0.203125 -0.375l0 -0.03125q0 -0.46875 -0.171875 -0.78125q-0.15625 -0.3125 -0.5 -0.484375q-0.34375 -0.171875 -0.84375 -0.171875q-0.53125 0 -0.90625 0.171875q-0.359375 0.15625 -0.59375 0.40625q-0.234375 0.234375 -0.34375 0.5l-1.125 -0.375q0.28125 -0.671875 0.75 -1.03125q0.484375 -0.375 1.046875 -0.53125q0.578125 -0.15625 1.140625 -0.15625q0.359375 0 0.828125 0.09375q0.46875 0.078125 0.890625 0.34375q0.4375 0.25 0.71875 0.765625q0.28125 0.5 0.28125 1.359375l0 4.796875l-1.15625 0l0 -0.984375l-0.078125 0q-0.109375 0.25 -0.390625 0.53125q-0.265625 0.265625 -0.703125 0.453125q-0.4375 0.171875 -1.0625 0.171875zm0.203125 -1.03125q0.65625 0 1.09375 -0.25q0.453125 -0.265625 0.6875 -0.671875q0.234375 -0.40625 0.234375 -0.84375l0 -1.015625q-0.0625 0.09375 -0.3125 0.15625q-0.234375 0.0625 -0.546875 0.125q-0.3125 0.046875 -0.609375 0.09375q-0.28125 0.03125 -0.453125 0.046875q-0.421875 0.046875 -0.796875 0.171875q-0.359375 0.125 -0.578125 0.375q-0.21875 0.25 -0.21875 0.65625q0 0.375 0.1875 0.640625q0.203125 0.25 0.53125 0.390625q0.34375 0.125 0.78125 0.125zm6.42157 -3.5l0 4.359375l-1.171875 0l0 -7.28125l1.125 0l0 1.765625l-0.15625 0q0.328125 -1.0 0.9375 -1.421875q0.625 -0.421875 1.453125 -0.421875q0.734375 0 1.28125 0.296875q0.5625 0.296875 0.859375 0.90625q0.3125 0.609375 0.3125 1.53125l0 4.625l-1.171875 0l0 -4.515625q0 -0.84375 -0.4375 -1.3125q-0.4375 -0.484375 -1.203125 -0.484375q-0.515625 0 -0.9375 0.234375q-0.40625 0.21875 -0.65625 0.65625q-0.234375 0.4375 -0.234375 1.0625zm7.7963867 1.75l0 -1.453125l0.21875 0l3.109375 -3.21875l1.453125 0l-3.359375 3.46875l-0.140625 0l-1.28125 1.203125zm-1.09375 2.609375l0 -9.703125l1.171875 0l0 9.703125l-1.171875 0zm4.59375 0l-2.78125 -3.5625l0.828125 -0.828125l3.453125 4.390625l-1.5 0zm8.500916 0.171875q-0.6875 0 -1.25 -0.25q-0.5625 -0.265625 -0.90625 -0.765625q-0.328125 -0.515625 -0.328125 -1.21875q0 -0.625 0.25 -1.015625q0.25 -0.390625 0.65625 -0.609375q0.421875 -0.234375 0.921875 -0.34375q0.5 -0.109375 1.015625 -0.171875q0.640625 -0.09375 1.046875 -0.140625q0.421875 -0.046875 0.609375 -0.15625q0.203125 -0.109375 0.203125 -0.375l0 -0.03125q0 -0.46875 -0.171875 -0.78125q-0.15625 -0.3125 -0.5 -0.484375q-0.34375 -0.171875 -0.84375 -0.171875q-0.53125 0 -0.90625 0.171875q-0.359375 0.15625 -0.59375 0.40625q-0.234375 0.234375 -0.34375 0.5l-1.125 -0.375q0.28125 -0.671875 0.75 -1.03125q0.484375 -0.375 1.046875 -0.53125q0.578125 -0.15625 1.140625 -0.15625q0.359375 0 0.828125 0.09375q0.46875 0.078125 0.890625 0.34375q0.4375 0.25 0.71875 0.765625q0.28125 0.5 0.28125 1.359375l0 4.796875l-1.15625 0l0 -0.984375l-0.078125 0q-0.109375 0.25 -0.390625 0.53125q-0.265625 0.265625 -0.703125 0.453125q-0.4375 0.171875 -1.0625 0.171875zm0.203125 -1.03125q0.65625 0 1.09375 -0.25q0.453125 -0.265625 0.6875 -0.671875q0.234375 -0.40625 0.234375 -0.84375l0 -1.015625q-0.0625 0.09375 -0.3125 0.15625q-0.234375 0.0625 -0.546875 0.125q-0.3125 0.046875 -0.609375 0.09375q-0.28125 0.03125 -0.453125 0.046875q-0.421875 0.046875 -0.796875 0.171875q-0.359375 0.125 -0.578125 0.375q-0.21875 0.25 -0.21875 0.65625q0 0.375 0.1875 0.640625q0.203125 0.25 0.53125 0.390625q0.34375 0.125 0.78125 0.125zm6.421509 -3.5l0 4.359375l-1.171875 0l0 -7.28125l1.125 0l0 1.765625l-0.15625 0q0.328125 -1.0 0.9375 -1.421875q0.625 -0.421875 1.453125 -0.421875q0.734375 0 1.28125 0.296875q0.5625 0.296875 0.859375 0.90625q0.3125 0.609375 0.3125 1.53125l0 4.625l-1.171875 0l0 -4.515625q0 -0.84375 -0.4375 -1.3125q-0.4375 -0.484375 -1.203125 -0.484375q-0.515625 0 -0.9375 0.234375q-0.40625 0.21875 -0.65625 0.65625q-0.234375 0.4375 -0.234375 1.0625zm9.421448 4.515625q-0.90625 0 -1.609375 -0.453125q-0.6875 -0.46875 -1.078125 -1.3125q-0.390625 -0.84375 -0.390625 -2.015625q0 -1.140625 0.390625 -1.984375q0.40625 -0.84375 1.09375 -1.296875q0.703125 -0.453125 1.609375 -0.453125q0.703125 0 1.109375 0.234375q0.421875 0.234375 0.640625 0.53125q0.234375 0.28125 0.359375 0.484375l0.09375 0l0 -3.59375l1.15625 0l0 9.703125l-1.125 0l0 -1.125l-0.125 0q-0.125 0.203125 -0.359375 0.515625q-0.21875 0.296875 -0.640625 0.53125q-0.421875 0.234375 -1.125 0.234375zm0.1875 -1.046875q0.65625 0 1.109375 -0.34375q0.453125 -0.359375 0.6875 -0.96875q0.234375 -0.625 0.234375 -1.421875q0 -0.8125 -0.234375 -1.40625q-0.21875 -0.609375 -0.6875 -0.9375q-0.453125 -0.34375 -1.109375 -0.34375q-0.703125 0 -1.15625 0.359375q-0.453125 0.34375 -0.6875 0.953125q-0.21875 0.609375 -0.21875 1.375q0 0.75 0.21875 1.375q0.234375 0.625 0.6875 1.0q0.46875 0.359375 1.15625 0.359375z" fill-rule="nonzero"/><path fill="#ffffff" d="m833.9118 98.947365q-0.984375 0 -1.734375 -0.46875q-0.734375 -0.46875 -1.15625 -1.3125q-0.421875 -0.84375 -0.421875 -1.96875q0 -1.140625 0.421875 -1.984375q0.421875 -0.859375 1.15625 -1.3125q0.75 -0.46875 1.734375 -0.46875q0.53125 0 1.0 0.140625q0.46875 0.125 0.859375 0.390625q0.390625 0.25 0.65625 0.625q0.28125 0.375 0.4375 0.84375l-1.125 0.328125q-0.078125 -0.28125 -0.25 -0.515625q-0.15625 -0.234375 -0.390625 -0.40625q-0.21875 -0.171875 -0.53125 -0.265625q-0.296875 -0.09375 -0.65625 -0.09375q-0.71875 0 -1.1875 0.375q-0.46875 0.375 -0.703125 1.0q-0.21875 0.609375 -0.21875 1.34375q0 0.71875 0.21875 1.34375q0.234375 0.609375 0.703125 0.984375q0.46875 0.375 1.1875 0.375q0.375 0 0.671875 -0.09375q0.3125 -0.109375 0.546875 -0.28125q0.234375 -0.171875 0.390625 -0.421875q0.171875 -0.25 0.25 -0.546875l1.125 0.328125q-0.15625 0.484375 -0.4375 0.875q-0.28125 0.375 -0.671875 0.640625q-0.390625 0.265625 -0.875 0.40625q-0.46875 0.140625 -1.0 0.140625zm7.614197 0q-0.984375 0 -1.734375 -0.46875q-0.734375 -0.46875 -1.15625 -1.3125q-0.421875 -0.84375 -0.421875 -1.96875q0 -1.140625 0.421875 -1.984375q0.421875 -0.859375 1.15625 -1.3125q0.75 -0.46875 1.734375 -0.46875q1.0 0 1.75 0.46875q0.75 0.453125 1.15625 1.3125q0.421875 0.84375 0.421875 1.984375q0 1.125 -0.421875 1.96875q-0.40625 0.84375 -1.15625 1.3125q-0.75 0.46875 -1.75 0.46875zm0 -1.046875q0.734375 0 1.203125 -0.375q0.484375 -0.375 0.703125 -0.984375q0.234375 -0.625 0.234375 -1.34375q0 -0.71875 -0.234375 -1.34375q-0.21875 -0.625 -0.703125 -1.0q-0.46875 -0.375 -1.203125 -0.375q-0.71875 0 -1.1875 0.375q-0.46875 0.375 -0.703125 1.0q-0.21875 0.609375 -0.21875 1.34375q0 0.71875 0.21875 1.34375q0.234375 0.609375 0.703125 0.984375q0.46875 0.375 1.1875 0.375zm5.038513 0.890625l0 -7.28125l1.140625 0l0 1.625l-0.09375 0q0.15625 -0.578125 0.46875 -0.96875q0.328125 -0.390625 0.75 -0.578125q0.4375 -0.203125 0.90625 -0.203125q0.796875 0 1.28125 0.484375q0.5 0.484375 0.640625 1.28125l-0.15625 0q0.140625 -0.546875 0.484375 -0.9375q0.34375 -0.390625 0.828125 -0.609375q0.5 -0.21875 1.078125 -0.21875q0.625 0 1.140625 0.28125q0.53125 0.265625 0.828125 0.828125q0.3125 0.546875 0.3125 1.390625l0 4.90625l-1.171875 0l0 -4.875q0 -0.78125 -0.4375 -1.125q-0.4375 -0.34375 -1.03125 -0.34375q-0.484375 0 -0.84375 0.21875q-0.34375 0.203125 -0.546875 0.5625q-0.1875 0.34375 -0.1875 0.8125l0 4.75l-1.171875 0l0 -4.984375q0 -0.609375 -0.40625 -0.984375q-0.40625 -0.375 -1.015625 -0.375q-0.421875 0 -0.796875 0.203125q-0.375 0.203125 -0.609375 0.59375q-0.21875 0.390625 -0.21875 0.96875l0 4.578125l-1.171875 0zm15.050171 0.15625q-0.6875 0 -1.109375 -0.234375q-0.421875 -0.234375 -0.65625 -0.53125q-0.21875 -0.3125 -0.34375 -0.515625l-0.140625 0l0 1.125l-1.125 0l0 -9.703125l1.171875 0l0 3.59375l0.09375 0q0.125 -0.203125 0.34375 -0.484375q0.21875 -0.296875 0.625 -0.53125q0.421875 -0.234375 1.140625 -0.234375q0.90625 0 1.59375 0.453125q0.703125 0.453125 1.09375 1.296875q0.390625 0.84375 0.390625 1.984375q0 1.171875 -0.390625 2.015625q-0.390625 0.84375 -1.09375 1.3125q-0.6875 0.453125 -1.59375 0.453125zm-0.171875 -1.046875q0.671875 0 1.125 -0.359375q0.46875 -0.375 0.703125 -1.0q0.234375 -0.625 0.234375 -1.375q0 -0.765625 -0.234375 -1.375q-0.21875 -0.609375 -0.6875 -0.953125q-0.453125 -0.359375 -1.140625 -0.359375q-0.671875 0 -1.125 0.34375q-0.453125 0.328125 -0.6875 0.9375q-0.234375 0.59375 -0.234375 1.40625q0 0.796875 0.234375 1.421875q0.234375 0.609375 0.6875 0.96875q0.46875 0.34375 1.125 0.34375zm4.9577026 0.890625l0 -7.28125l1.171875 0l0 7.28125l-1.171875 0zm0.59375 -8.46875q-0.328125 0 -0.578125 -0.21875q-0.234375 -0.234375 -0.234375 -0.546875q0 -0.328125 0.234375 -0.546875q0.25 -0.234375 0.578125 -0.234375q0.34375 0 0.578125 0.234375q0.234375 0.21875 0.234375 0.546875q0 0.3125 -0.234375 0.546875q-0.234375 0.21875 -0.578125 0.21875zm3.8060303 4.109375l0 4.359375l-1.171875 0l0 -7.28125l1.125 0l0 1.765625l-0.15625 0q0.328125 -1.0 0.9375 -1.421875q0.625 -0.421875 1.453125 -0.421875q0.734375 0 1.28125 0.296875q0.5625 0.296875 0.859375 0.90625q0.3125 0.609375 0.3125 1.53125l0 4.625l-1.171875 0l0 -4.515625q0 -0.84375 -0.4375 -1.3125q-0.4375 -0.484375 -1.203125 -0.484375q-0.515625 0 -0.9375 0.234375q-0.40625 0.21875 -0.65625 0.65625q-0.234375 0.4375 -0.234375 1.0625zm9.765198 4.515625q-1.0625 0 -1.828125 -0.46875q-0.765625 -0.46875 -1.1875 -1.296875q-0.40625 -0.84375 -0.40625 -1.96875q0 -1.125 0.40625 -1.96875q0.40625 -0.859375 1.140625 -1.328125q0.75 -0.484375 1.734375 -0.484375q0.578125 0 1.140625 0.1875q0.5625 0.1875 1.015625 0.625q0.46875 0.421875 0.734375 1.125q0.28125 0.6875 0.28125 1.6875l0 0.5l-5.65625 0l0 -1.0l5.015625 0l-0.546875 0.375q0 -0.71875 -0.21875 -1.265625q-0.21875 -0.5625 -0.671875 -0.875q-0.4375 -0.328125 -1.09375 -0.328125q-0.65625 0 -1.125 0.328125q-0.46875 0.3125 -0.71875 0.84375q-0.25 0.515625 -0.25 1.109375l0 0.65625q0 0.796875 0.28125 1.359375q0.28125 0.5625 0.78125 0.859375q0.5 0.28125 1.171875 0.28125q0.421875 0 0.765625 -0.109375q0.359375 -0.125 0.609375 -0.375q0.265625 -0.265625 0.40625 -0.625l1.125 0.3125q-0.171875 0.546875 -0.578125 0.96875q-0.390625 0.40625 -1.0 0.640625q-0.59375 0.234375 -1.328125 0.234375z" fill-rule="nonzero"/><path fill="#000000" fill-opacity="0.0" d="m176.01576 85.99112l42.362198 0" fill-rule="evenodd"/><path stroke="#ffffff" stroke-width="1.0" stroke-linejoin="round" stroke-linecap="butt" d="m176.01575 85.99112l36.362213 0" fill-rule="evenodd"/><path fill="#ffffff" stroke="#ffffff" stroke-width="1.0" stroke-linecap="butt" d="m212.37796 87.642845l4.538086 -1.6517258l-4.538086 -1.6517334z" fill-rule="evenodd"/><path fill="#000000" fill-opacity="0.0" d="m364.55466 85.99112l42.362213 0" fill-rule="evenodd"/><path stroke="#ffffff" stroke-width="1.0" stroke-linejoin="round" stroke-linecap="butt" d="m364.55466 85.99112l36.362213 0" fill-rule="evenodd"/><path fill="#ffffff" stroke="#ffffff" stroke-width="1.0" stroke-linecap="butt" d="m400.91687 87.642845l4.538086 -1.6517258l-4.538086 -1.6517334z" fill-rule="evenodd"/><path fill="#000000" fill-opacity="0.0" d="m553.09357 85.99112l42.362183 0" fill-rule="evenodd"/><path stroke="#ffffff" stroke-width="1.0" stroke-linejoin="round" stroke-linecap="butt" d="m553.09357 85.99112l36.362244 0" fill-rule="evenodd"/><path fill="#ffffff" stroke="#ffffff" stroke-width="1.0" stroke-linecap="butt" d="m589.4558 87.642845l4.538086 -1.6517258l-4.538086 -1.6517334z" fill-rule="evenodd"/><path fill="#000000" fill-opacity="0.0" d="m741.63245 85.99112l42.362244 0" fill-rule="evenodd"/><path stroke="#ffffff" stroke-width="1.0" stroke-linejoin="round" stroke-linecap="butt" d="m741.63245 85.99112l36.362244 0" fill-rule="evenodd"/><path fill="#ffffff" stroke="#ffffff" stroke-width="1.0" stroke-linecap="butt" d="m777.9947 87.642845l4.538086 -1.6517258l-4.538086 -1.6517334z" fill-rule="evenodd"/><path fill="#000000" fill-opacity="0.0" d="m37.0 178.0l514.9921 0" fill-rule="evenodd"/><path stroke="#ffffff" stroke-width="1.0" stroke-linejoin="round" stroke-linecap="butt" stroke-dasharray="1.0,3.0" d="m37.0 178.0l514.9921 0" fill-rule="evenodd"/><path fill="#000000" fill-opacity="0.0" d="m218.38057 178.0l146.17323 0l0 34.83464l-146.17323 0z" fill-rule="evenodd"/><path fill="#ffffff" d="m253.17097 200.34232q-1.234375 0 -2.1875 -0.609375q-0.9375 -0.609375 -1.484375 -1.71875q-0.53125 -1.125 -0.53125 -2.640625q0 -1.515625 0.53125 -2.640625q0.546875 -1.125 1.484375 -1.734375q0.953125 -0.609375 2.1875 -0.609375q1.21875 0 2.171875 0.609375q0.95314026 0.609375 1.4843903 1.734375q0.546875 1.125 0.546875 2.640625q0 1.515625 -0.546875 2.640625q-0.53125 1.109375 -1.4843903 1.71875q-0.953125 0.609375 -2.171875 0.609375zm0 -0.859375q0.9375 0 1.6875 -0.484375q0.75 -0.5 1.1718903 -1.40625q0.4375 -0.921875 0.4375 -2.21875q0 -1.296875 -0.4375 -2.21875q-0.42189026 -0.921875 -1.1718903 -1.40625q-0.75 -0.5 -1.6875 -0.5q-0.953125 0 -1.703125 0.5q-0.75 0.484375 -1.1875 1.40625q-0.421875 0.921875 -0.421875 2.21875q0 1.28125 0.421875 2.203125q0.4375 0.921875 1.1875 1.421875q0.75 0.484375 1.703125 0.484375zm7.0507355 -3.796875l0 4.53125l-0.890625 0l0 -7.28125l0.859375 0l0 1.703125l-0.140625 0q0.3125 -0.953125 0.953125 -1.375q0.640625 -0.421875 1.46875 -0.421875q0.734375 0 1.28125 0.3125q0.5625 0.3125 0.875 0.90625q0.328125 0.578125 0.328125 1.453125l0 4.703125l-0.890625 0l0 -4.640625q0 -0.890625 -0.5 -1.40625q-0.5 -0.515625 -1.328125 -0.515625q-0.578125 0 -1.03125 0.25q-0.453125 0.234375 -0.71875 0.703125q-0.265625 0.453125 -0.265625 1.078125zm9.9045105 4.6875q-1.015625 0 -1.765625 -0.46875q-0.75 -0.484375 -1.15625 -1.328125q-0.40625 -0.859375 -0.40625 -1.953125q0 -1.09375 0.390625 -1.9375q0.40625 -0.859375 1.125 -1.34375q0.71875 -0.5 1.671875 -0.5q0.59375 0 1.140625 0.21875q0.5625 0.21875 1.0 0.671875q0.453125 0.4375 0.703125 1.125q0.25 0.6875 0.25 1.609375l0 0.375l-5.703125 0l0 -0.75l5.234375 0l-0.40625 0.28125q0 -0.78125 -0.265625 -1.390625q-0.265625 -0.625 -0.765625 -0.984375q-0.484375 -0.359375 -1.1875 -0.359375q-0.6875 0 -1.203125 0.375q-0.515625 0.359375 -0.8125 0.953125q-0.28125 0.59375 -0.28125 1.3125l0 0.453125q0 0.859375 0.296875 1.5q0.296875 0.640625 0.84375 1.0q0.546875 0.34375 1.296875 0.34375q0.515625 0 0.890625 -0.15625q0.390625 -0.171875 0.65625 -0.4375q0.265625 -0.265625 0.390625 -0.59375l0.84375 0.265625q-0.171875 0.46875 -0.546875 0.859375q-0.375 0.390625 -0.9375 0.625q-0.5625 0.234375 -1.296875 0.234375zm10.832764 0q-0.703125 0 -1.265625 -0.21875q-0.546875 -0.21875 -0.90625 -0.640625q-0.359375 -0.421875 -0.484375 -1.03125l0.84375 -0.203125q0.15625 0.65625 0.609375 0.984375q0.46875 0.328125 1.203125 0.328125q0.828125 0 1.3125 -0.375q0.5 -0.375 0.5 -0.921875q0 -0.453125 -0.296875 -0.734375q-0.296875 -0.296875 -0.890625 -0.4375l-1.171875 -0.296875q-0.9375 -0.21875 -1.40625 -0.703125q-0.46875 -0.484375 -0.46875 -1.21875q0 -0.609375 0.328125 -1.078125q0.328125 -0.46875 0.90625 -0.71875q0.578125 -0.265625 1.3125 -0.265625q0.6875 0 1.171875 0.21875q0.5 0.203125 0.828125 0.59375q0.328125 0.375 0.484375 0.90625l-0.8125 0.203125q-0.15625 -0.5 -0.5625 -0.828125q-0.390625 -0.328125 -1.109375 -0.328125q-0.71875 0 -1.1875 0.34375q-0.46875 0.34375 -0.46875 0.890625q0 0.46875 0.3125 0.765625q0.328125 0.28125 1.0 0.453125l1.109375 0.265625q0.921875 0.234375 1.375 0.71875q0.46875 0.46875 0.46875 1.1875q0 0.625 -0.359375 1.109375q-0.34375 0.484375 -0.953125 0.765625q-0.609375 0.265625 -1.421875 0.265625zm7.0350647 -7.4375l0 0.765625l-3.46875 0l0 -0.765625l3.46875 0zm-2.390625 -1.71875l0.890625 0l0 7.28125q0 0.546875 0.234375 0.796875q0.25 0.25 0.734375 0.203125q0.09375 0 0.21875 -0.015625q0.140625 -0.03125 0.265625 -0.0625l0.171875 0.765625q-0.140625 0.046875 -0.3125 0.0625q-0.171875 0.03125 -0.34375 0.046875q-0.875 0.046875 -1.375 -0.421875q-0.484375 -0.46875 -0.484375 -1.3125l0 -7.34375zm6.7406616 9.15625q-1.015625 0 -1.765625 -0.46875q-0.75 -0.484375 -1.15625 -1.328125q-0.40625 -0.859375 -0.40625 -1.953125q0 -1.09375 0.390625 -1.9375q0.40625 -0.859375 1.125 -1.34375q0.71875 -0.5 1.671875 -0.5q0.59375 0 1.140625 0.21875q0.5625 0.21875 1.0 0.671875q0.453125 0.4375 0.703125 1.125q0.25 0.6875 0.25 1.609375l0 0.375l-5.703125 0l0 -0.75l5.234375 0l-0.40625 0.28125q0 -0.78125 -0.265625 -1.390625q-0.265625 -0.625 -0.765625 -0.984375q-0.484375 -0.359375 -1.1875 -0.359375q-0.6875 0 -1.203125 0.375q-0.515625 0.359375 -0.8125 0.953125q-0.28125 0.59375 -0.28125 1.3125l0 0.453125q0 0.859375 0.296875 1.5q0.296875 0.640625 0.84375 1.0q0.546875 0.34375 1.296875 0.34375q0.515625 0 0.890625 -0.15625q0.390625 -0.171875 0.65625 -0.4375q0.265625 -0.265625 0.390625 -0.59375l0.84375 0.265625q-0.171875 0.46875 -0.546875 0.859375q-0.375 0.390625 -0.9375 0.625q-0.5625 0.234375 -1.296875 0.234375zm4.7717285 2.5625153l0 -10.000015l0.859375 0l0 1.40625l0.09375 0q0.15625 -0.328125 0.421875 -0.671875q0.265625 -0.34375 0.703125 -0.578125q0.4375 -0.25 1.109375 -0.25q0.890625 0 1.5625 0.46875q0.671875 0.46875 1.046875 1.3125q0.375 0.84375 0.375 1.96875q0 1.140625 -0.375 2.0q-0.359375 0.84375 -1.03125 1.3125q-0.671875 0.46875 -1.578125 0.46875q-0.640625 0 -1.09375 -0.234375q-0.4375 -0.234375 -0.71875 -0.578125q-0.265625 -0.359375 -0.421875 -0.703125l-0.0625 0l0 4.0781403l-0.890625 0zm3.078125 -3.3593903q0.71875 0 1.203125 -0.390625q0.5 -0.40625 0.75 -1.078125q0.25 -0.6875 0.25 -1.515625q0 -0.828125 -0.25 -1.5q-0.25 -0.671875 -0.75 -1.0625q-0.484375 -0.390625 -1.203125 -0.390625q-0.703125 0 -1.203125 0.390625q-0.484375 0.375 -0.75 1.046875q-0.25 0.65625 -0.25 1.515625q0 0.859375 0.25 1.546875q0.265625 0.671875 0.75 1.0625q0.5 0.375 1.203125 0.375zm8.866486 0.640625l0 -9.703125l0.9375 0l0 8.875l4.59375 0l0 0.828125l-5.53125 0zm7.523102 0l0 -9.703125l0.9375 0l0 8.875l4.59375 0l0 0.828125l-5.53125 0zm7.523102 0l0 -9.703125l1.3125 0l2.703125 6.65625q0.09375 0.21875 0.1875 0.515625q0.109375 0.28125 0.21875 0.609375q0.125 0.328125 0.21875 0.65625q0.109375 0.328125 0.203125 0.609375l-0.234375 0q0.09375 -0.28125 0.1875 -0.59375q0.109375 -0.3125 0.21875 -0.640625q0.125 -0.34375 0.21875 -0.640625q0.109375 -0.296875 0.203125 -0.515625l2.6875 -6.65625l1.3125 0l0 9.703125l-0.90625 0l0 -6.15625q0 -0.28125 0 -0.625q0 -0.34375 0 -0.71875q0.015625 -0.375 0.015625 -0.75q0.015625 -0.390625 0.015625 -0.75l0.09375 0q-0.125 0.390625 -0.265625 0.796875q-0.140625 0.390625 -0.28125 0.78125q-0.125 0.375 -0.25 0.703125q-0.125 0.328125 -0.21875 0.5625l-2.515625 6.15625l-0.8125 0l-2.546875 -6.15625q-0.09375 -0.234375 -0.21875 -0.546875q-0.109375 -0.328125 -0.25 -0.703125q-0.125 -0.375 -0.265625 -0.78125q-0.140625 -0.40625 -0.296875 -0.8125l0.109375 0q0.015625 0.328125 0.015625 0.703125q0 0.375 0 0.75q0.015625 0.375 0.015625 0.734375q0.015625 0.359375 0.015625 0.65625l0 6.15625l-0.890625 0z" fill-rule="nonzero"/></g></svg>